<?xml version="1.0" standalone="no"?>
<!DOCTYPE svg PUBLIC "-//W3C//DTD SVG 20010904//EN"
 "http://www.w3.org/TR/2001/REC-SVG-20010904/DTD/svg10.dtd">
<svg version="1.0" xmlns="http://www.w3.org/2000/svg"
 width="1746.000000pt" height="1746.000000pt" viewBox="0 0 1746.000000 1746.000000"
 preserveAspectRatio="xMidYMid meet">
<metadata>
Created by potrace 1.11, written by Peter Selinger 2001-2013
</metadata>
<g transform="translate(0.000000,1746.000000) scale(0.100000,-0.100000)"
fill="#000000" stroke="none">
<path d="M12690 15647 c-25 -19 -351 -249 -725 -512 -630 -443 -928 -653
-2550 -1794 -324 -228 -891 -627 -1260 -886 -368 -259 -1322 -931 -2120 -1492
-797 -560 -1634 -1149 -1860 -1308 -398 -280 -1214 -854 -2125 -1495 -245
-172 -506 -356 -582 -409 l-136 -96 1226 -7 c675 -5 2139 -11 3253 -14 l2026
-6 45 -87 c45 -85 793 -1525 1180 -2271 110 -212 226 -434 258 -495 31 -60 89
-171 128 -245 122 -236 441 -850 517 -995 40 -77 190 -365 332 -640 143 -275
323 -620 399 -767 98 -189 141 -262 146 -250 3 9 16 89 28 177 11 88 25 189
30 225 10 65 58 416 125 905 19 143 40 289 45 325 5 36 28 198 50 360 22 162
56 408 75 545 19 138 50 367 70 510 19 143 40 289 45 325 5 36 21 151 35 255
14 105 30 219 35 255 5 36 21 151 35 255 14 105 30 217 35 250 6 33 17 112 25
175 8 63 28 214 45 335 17 121 38 272 46 335 8 63 26 192 39 285 13 94 36 256
50 360 14 105 32 235 40 290 8 55 26 183 40 285 27 201 95 697 150 1095 19
138 51 367 70 510 20 143 42 305 50 360 8 55 30 217 50 360 20 143 51 375 71
515 35 256 70 511 119 865 14 105 39 287 56 405 16 118 36 262 44 320 8 58 32
236 54 395 39 277 65 472 147 1065 116 850 129 929 142 901 32 -67 44 -148 46
-330 3 -168 6 -195 31 -281 33 -115 47 -184 74 -369 8 -52 26 -103 60 -175 27
-55 56 -123 65 -151 9 -27 32 -72 51 -100 20 -27 42 -71 50 -99 8 -27 27 -79
42 -115 l28 -66 -3 -265 c-3 -262 7 -474 29 -620 6 -41 15 -127 19 -190 5 -63
14 -176 20 -250 12 -155 12 -173 8 -610 -4 -392 -7 -412 -97 -553 -34 -53 -77
-134 -97 -179 -59 -139 -86 -198 -145 -313 -73 -144 -93 -197 -129 -335 -16
-63 -41 -155 -55 -205 -39 -139 -34 -330 10 -385 6 -8 22 -42 35 -75 13 -33
45 -104 72 -159 26 -54 48 -104 48 -112 0 -7 17 -53 39 -101 21 -48 57 -163
80 -254 22 -92 49 -186 59 -210 32 -74 93 -320 108 -434 8 -62 18 -75 56 -75
33 0 88 25 88 41 0 6 10 9 23 7 31 -4 35 -62 8 -124 -12 -26 -21 -53 -21 -61
0 -16 -53 -159 -80 -218 -44 -95 -62 -145 -81 -223 -22 -94 -39 -132 -81 -181
-16 -18 -39 -53 -51 -77 -25 -52 -18 -85 25 -117 35 -26 65 -18 119 33 24 22
50 42 60 45 9 3 74 69 145 146 147 161 204 213 327 296 111 76 145 107 153
138 10 40 -4 90 -32 116 -31 29 -133 229 -162 319 -12 36 -26 105 -32 153 -6
49 -18 110 -27 135 -17 50 -26 114 -43 307 -6 66 -18 156 -26 200 -9 44 -20
107 -24 141 -20 141 -97 402 -135 459 -25 36 -26 38 -10 90 21 75 108 266 155
345 22 36 40 74 40 83 0 10 48 81 108 160 59 78 114 153 123 166 8 14 20 22
26 18 5 -4 24 -44 42 -91 18 -46 38 -90 46 -96 8 -7 15 -16 15 -21 0 -5 17
-37 38 -72 21 -34 64 -102 94 -152 57 -93 168 -302 168 -317 0 -4 24 -52 54
-105 30 -54 75 -152 100 -218 81 -218 127 -313 198 -408 13 -17 48 -72 77
-122 l54 -89 8 -161 c10 -186 17 -259 30 -293 5 -13 14 -65 19 -116 13 -127
32 -183 90 -262 67 -92 112 -110 163 -66 24 21 53 122 62 212 8 94 -9 342 -28
395 -8 22 -17 62 -21 88 -11 73 -72 282 -105 356 -34 77 -71 230 -71 290 0 24
-8 73 -19 109 -25 91 -41 179 -41 233 0 25 -15 107 -34 181 -19 74 -39 173
-44 219 -6 46 -22 118 -37 159 -14 41 -32 106 -40 144 -9 38 -26 90 -40 115
-13 25 -31 64 -39 86 -26 74 -75 185 -100 227 -38 67 -60 172 -72 348 -6 101
-44 371 -53 389 -5 9 -14 41 -20 71 -11 62 -46 232 -61 300 -15 72 -17 290 -2
290 8 -1 31 -37 164 -265 55 -93 110 -181 123 -195 21 -23 84 -149 122 -243 8
-20 37 -78 64 -129 27 -50 52 -101 55 -112 14 -44 157 -211 192 -225 15 -6 43
-12 62 -13 l35 -3 6 -65 c6 -75 12 -93 46 -173 35 -78 62 -85 109 -31 36 42
39 56 23 123 -5 24 -7 46 -5 49 20 20 228 -84 260 -129 20 -30 87 -70 109 -67
27 4 41 29 34 59 -6 20 -84 149 -130 214 -8 11 -33 26 -55 32 -23 7 -80 31
-127 54 -77 37 -85 44 -85 69 0 26 -131 282 -164 320 -20 23 -168 328 -195
400 -27 73 -71 166 -154 320 -30 58 -67 135 -81 172 -14 38 -53 123 -87 190
-37 75 -67 150 -75 191 -8 38 -29 117 -45 175 -33 113 -62 157 -137 212 -38
28 -43 24 72 59 38 12 90 31 115 43 25 11 64 29 86 38 22 10 49 27 59 39 11
11 23 21 27 21 13 0 37 -92 50 -195 15 -124 13 -324 -6 -430 -8 -44 -15 -107
-17 -139 -3 -59 -2 -61 32 -84 32 -22 42 -24 110 -19 73 5 202 39 228 60 8 7
11 21 8 36 -3 14 -8 46 -11 71 -15 129 -144 629 -180 700 -15 30 -104 125
-122 131 -13 4 -30 110 -42 255 -9 109 -38 178 -84 203 -17 9 -49 36 -71 60
-23 24 -66 60 -96 81 -30 21 -66 50 -80 65 -78 85 -153 108 -193 59 -32 -39
-69 -75 -114 -111 -38 -30 -47 -32 -137 -37 -106 -5 -140 -18 -157 -64 -6 -15
-8 -40 -6 -57 5 -36 -8 -65 -29 -65 -35 0 -103 -106 -104 -162 0 -14 11 -40
25 -56 34 -40 31 -45 -9 -21 -72 42 -203 199 -229 272 -6 17 -29 63 -52 102
-73 123 -102 202 -125 335 -44 254 -89 438 -127 518 -14 29 -29 81 -33 115
-22 164 -72 320 -152 471 -12 22 -22 51 -24 65 -5 57 -25 136 -42 165 -10 17
-34 41 -53 53 -18 13 -39 27 -46 33 -16 13 -11 15 -63 -23z"/>
</g>
</svg>
